# xmcd
#
# Track frame offsets:
#	150
#	15010
#	30237
#	43527
#	56632
#	69582
#	85152
#	100100
#	113382
#	125485
#	140787
#	170695
#
# Disc length: 2892 seconds
#
# Revision: 0
# Processed by: cddbd v1.5.2PL0 Copyright (c) Steve Scherf et al.
# Submitted via: dBpowerAMP V4.0
#
DISCID=900b4a0c
DTITLE=John Leyton - John Leyton is 'back!
DYEAR=1900
DGENRE=Ballad
TTITLE0=Have I Told You lately That I Love You?
TTITLE1=Your Cheatin' Heart
TTITLE2=Help Me Make It Through The Night
TTITLE3=Love Me With All Your Heart
TTITLE4=Hold Me, Thrill Me, Kiss Me
TTITLE5=Mellow Yellow
TTITLE6=Walk Right Back
TTITLE7=I Don't Know Why
TTITLE8=Pretend
TTITLE9=Cry
TTITLE10=X-ERTMega Mix1
TTITLE11=X-ERTMega Mix2
EXTD=
EXTT0=
EXTT1=
EXTT2=
EXTT3=
EXTT4=
EXTT5=
EXTT6=
EXTT7=
EXTT8=
EXTT9=
EXTT10=
EXTT11=
PLAYORDER=
